<?xml version="1.0" encoding="utf-8"?>
<!-- Generator: Adobe Illustrator 17.0.0, SVG Export Plug-In . SVG Version: 6.00 Build 0)  -->
<!DOCTYPE svg PUBLIC "-//W3C//DTD SVG 1.1//EN" "http://www.w3.org/Graphics/SVG/1.1/DTD/svg11.dtd">
<svg version="1.1" id="Ebene_1" xmlns="http://www.w3.org/2000/svg" xmlns:xlink="http://www.w3.org/1999/xlink" x="0px" y="0px"
	 width="300px" height="100px" viewBox="0 0 300 100" enable-background="new 0 0 300 100" xml:space="preserve">
<g>
	<g id="BoGJDx.tif_1_">
		<g>
			<path d="M16.329,4.079c3.91,14.888,7.498,28.402,10.929,41.951c0.224,0.886-0.455,2.332-1.217,3.025
				c-4.329,3.932-6.575,8.622-6.213,14.647c-3.363-2.203-3.417-4.714-1.821-7.46c3.501-6.023,3.137-11.625-0.969-17.442
				c-2.871-4.066-4.599-8.833-7.174-13.106c-2.275-3.776-2.179-7.321,0.007-10.968C11.775,11.544,13.717,8.381,16.329,4.079z"/>
			<path d="M86.306,3.814c1.249,1.599,1.881,2.433,2.541,3.249c5.91,7.294,7.801,14.758,1.425,22.791
				c-1.305,1.644-1.833,3.819-3.029,5.56c-4.712,6.862-6.844,13.755-2.008,21.529c0.835,1.342-0.416,3.838-1.433,5.811
				c-0.537-6.047-2.867-10.961-7.527-14.965c-0.678-0.583-0.824-2.2-0.571-3.192C79.09,31.299,82.59,18.027,86.306,3.814z"/>
			<path d="M29.938,75.052c-9.231-6.252-9.837-17.348-2.014-23.76c1.526,3.787,3.062,7.599,4.656,11.555
				c-2.767,0.915-5.268,2.031-2.786,5.925C30.685,70.168,29.938,72.493,29.938,75.052z"/>
			<path d="M70.275,61.977c1.583-3.976,3.071-7.713,4.528-11.372c7.98,5.506,7.36,17.936-2.01,23.45c0-2.185-0.71-4.431,0.137-5.844
				C75.178,64.466,73.419,62.853,70.275,61.977z"/>
			<path d="M7.899,26.535c3.38,8.245,11.153,14.934,9.897,24.797C13.807,43.304,3.905,37.458,7.899,26.535z"/>
			<path d="M94.71,25.16c3.383,7.352,3.891,5.121-9.752,26.585c-0.403-2.829-1.464-4.988-0.786-6.412
				C87.364,38.611,91.032,32.091,94.71,25.16z"/>
			<path d="M6.91,39.592c5.833,6.201,9.701,14.326,8.307,17.447C7.425,49.095,5.128,44.269,6.91,39.592z"/>
			<path d="M87.31,56.059c-0.592-7.066,5.543-11.441,7.948-17.708C98.092,42.987,97.594,44.135,87.31,56.059z"/>
		</g>
	</g>
	<path d="M44.767,45.593c0.121-2.585,0.021-5.179,0.021-8.212c-3.801,1.22-7.306,2.347-10.811,3.472
		c-0.118-0.114-0.236-0.227-0.354-0.341c2.568-2.564,5.135-5.129,8.225-8.215c-3.987,0.324-7.269,0.591-10.552,0.858
		c-0.112-0.176-0.224-0.351-0.337-0.527c2.602-1.801,5.203-3.603,8.321-5.761c-4.09-0.715-7.676-1.342-11.262-1.968
		c-0.01-0.238-0.019-0.475-0.029-0.713c8.676-1.505,17.329-3.139,26.035-4.465c4.716-0.719,9.515-1.006,14.29-1.27
		c0.904-0.05,2.385,0.721,2.721,1.467c1.26,2.797,2.158,5.741,3.377,9.153c-2.147-0.773-3.767-1.356-5.661-2.038
		c0,1.635,0,2.962,0,4.937c-1.456-0.956-2.476-1.625-3.96-2.599c-4.636,5.656-9.321,11.371-14.492,17.679
		c-0.395-4.013-0.726-7.378-1.057-10.742c-0.296-0.108-0.591-0.216-0.886-0.324c-0.386,0.766-1.129,1.545-1.098,2.295
		c0.156,3.745,0.442,7.49,0.87,11.215c0.083,0.718,0.943,1.876,1.547,1.937c4.399,0.444,8.746,0.279,12.893-2.291
		c-0.763-1.742-1.515-3.46-2.375-5.425c6.397,5.578,9.683,18.394,9.86,37.749l0.399,5.729c-11.618,8.663-33.08,14.296-46.543,6.577
		c1.452-1.076,3.562-9.356,4.812-10.53c-1.25,1.174,2.92-6.372,2.92-6.372c0.958-0.96,4.485-8.579,4.485-8.579 M36.517,91.039
		c6.537,1.145,12.898,0.567,19.153-1.329c6.798-2.061,10.184-6.963,9.628-13.994c-6.313,3.619-13.153,4.385-20.297,3.73
		c-0.652-0.06-1.699,0.277-1.996,0.747C40.799,83.703,38.734,87.294,36.517,91.039z M44.884,75.519
		c6.561,1.628,12.952,1.807,19.248-0.525c0.78-0.289,1.754-1.282,1.791-1.99c0.185-3.468,0.084-6.951,0.084-11.173
		c-6.255,4.095-12.451,4.223-18.681,3.994C46.507,69.076,45.756,72.058,44.884,75.519z M47.77,62.245
		c5.37,1.229,10.387,1.461,15.345-0.043c0.907-0.275,2.243-1.499,2.151-2.124c-0.48-3.273-1.356-6.493-1.962-9.151
		c-5.121,1.486-9.87,2.865-15.202,4.412C48.021,57.016,47.903,59.467,47.77,62.245z M60.766,23.081
		c-3.098,0.213-6.196,0.426-9.903,0.68C54.27,26.225,57.115,26.088,60.766,23.081z"/>
</g>
<rect x="110.5" y="42" fill="none" width="243" height="60"/>
<g enable-background="new    ">
	<path stroke="#000000" stroke-miterlimit="10" d="M127.244,43.176h2.66v19.599h-2.716l-11.2-15.175v15.175H113.3V43.176h2.716
		l11.228,15.203V43.176z"/>
	<path stroke="#000000" stroke-miterlimit="10" d="M144.324,62.775v-2.072c-1.102,1.457-2.828,2.186-5.18,2.186
		c-1.027,0-1.928-0.197-2.702-0.588c-0.775-0.393-1.372-0.934-1.792-1.625c-0.42-0.689-0.63-1.465-0.63-2.324
		c0-1.324,0.49-2.375,1.47-3.15c0.98-0.773,2.347-1.17,4.102-1.189h4.704v-0.699c0-1.045-0.322-1.854-0.966-2.422
		c-0.644-0.57-1.582-0.855-2.814-0.855c-1.494,0-3.015,0.533-4.564,1.597l-1.092-1.792c1.064-0.69,2.048-1.19,2.954-1.498
		c0.905-0.309,1.983-0.463,3.234-0.463c1.848,0,3.276,0.453,4.284,1.358c1.008,0.905,1.521,2.17,1.54,3.793l0.028,9.744H144.324z
		 M142.77,59.85c0.849-0.588,1.358-1.367,1.526-2.338v-1.484h-4.34c-1.176,0-2.049,0.178-2.618,0.533
		c-0.57,0.354-0.854,0.914-0.854,1.68s0.289,1.371,0.868,1.82c0.578,0.447,1.353,0.672,2.324,0.672
		C140.889,60.732,141.92,60.438,142.77,59.85z"/>
	<path stroke="#000000" stroke-miterlimit="10" d="M156.224,48.734c0.896-0.551,1.96-0.835,3.192-0.854V50.4
		c-1.513-0.056-2.735,0.336-3.668,1.176c-0.934,0.84-1.467,1.969-1.597,3.389v7.811h-2.604V47.964h2.604v3.192
		C154.637,50.092,155.328,49.285,156.224,48.734z"/>
	<path stroke="#000000" stroke-miterlimit="10" d="M166.92,48.734c0.896-0.551,1.959-0.835,3.191-0.854V50.4
		c-1.512-0.056-2.734,0.336-3.668,1.176s-1.466,1.969-1.596,3.389v7.811h-2.604V47.964h2.604v3.192
		C165.332,50.092,166.023,49.285,166.92,48.734z"/>
	<path stroke="#000000" stroke-miterlimit="10" d="M183.033,48.832c1.148,0.635,2.044,1.518,2.688,2.647
		c0.645,1.129,0.967,2.422,0.967,3.877c0,1.457-0.322,2.754-0.967,3.893c-0.644,1.139-1.539,2.025-2.688,2.66
		s-2.459,0.951-3.934,0.951c-1.494,0-2.814-0.316-3.963-0.951c-1.147-0.635-2.043-1.518-2.688-2.646s-0.967-2.432-0.967-3.906
		c0-1.455,0.322-2.748,0.967-3.877c0.645-1.129,1.54-2.012,2.688-2.647c1.148-0.634,2.469-0.952,3.963-0.952
		C180.574,47.879,181.885,48.198,183.033,48.832z M176.51,50.82c-0.757,0.447-1.345,1.068-1.765,1.861s-0.63,1.693-0.63,2.703
		c0,1.025,0.21,1.941,0.63,2.742c0.42,0.805,1.008,1.424,1.765,1.863c0.756,0.438,1.619,0.658,2.59,0.658
		c0.951,0,1.806-0.221,2.562-0.658c0.756-0.439,1.344-1.059,1.765-1.863c0.42-0.801,0.629-1.717,0.629-2.742
		c0-1.01-0.209-1.91-0.629-2.703c-0.421-0.793-1.009-1.414-1.765-1.861c-0.756-0.449-1.61-0.672-2.562-0.672
		C178.129,50.148,177.266,50.372,176.51,50.82z"/>
	<path stroke="#000000" stroke-miterlimit="10" d="M187.359,47.964h2.715l4.145,12.235l4.088-12.235h2.717l4.115,12.235
		l4.088-12.235h2.688l-5.46,14.811h-2.717l-4.088-11.648l-4.088,11.648h-2.716L187.359,47.964z"/>
	<path stroke="#000000" stroke-miterlimit="10" d="M220.301,50.344c-0.738-0.225-1.442-0.336-2.114-0.336
		c-0.784,0-1.414,0.145-1.89,0.434c-0.477,0.291-0.715,0.732-0.715,1.33s0.267,1.051,0.799,1.357
		c0.531,0.309,1.339,0.621,2.422,0.939c1.025,0.299,1.866,0.598,2.52,0.896c0.653,0.297,1.209,0.736,1.666,1.314
		c0.457,0.58,0.686,1.344,0.686,2.297c0,1.4-0.527,2.463-1.582,3.191s-2.365,1.092-3.934,1.092c-1.102,0-2.17-0.176-3.205-0.531
		c-1.037-0.355-1.91-0.859-2.619-1.512l0.98-1.904c0.616,0.561,1.377,1.008,2.281,1.344c0.906,0.336,1.788,0.504,2.646,0.504
		s1.549-0.158,2.072-0.477c0.522-0.316,0.784-0.801,0.784-1.455c0-0.672-0.276-1.176-0.826-1.512
		c-0.551-0.336-1.386-0.672-2.506-1.008c-0.989-0.281-1.797-0.564-2.423-0.855c-0.625-0.289-1.156-0.713-1.596-1.273
		c-0.438-0.561-0.658-1.287-0.658-2.184c0-1.381,0.504-2.417,1.513-3.108c1.008-0.69,2.269-1.036,3.78-1.036
		c0.896,0,1.777,0.126,2.646,0.378s1.619,0.593,2.254,1.021l-0.952,1.989C221.715,50.867,221.037,50.568,220.301,50.344z"/>
	<path stroke="#000000" stroke-miterlimit="10" d="M239.047,48.832c1.082,0.635,1.922,1.521,2.52,2.661
		c0.598,1.139,0.896,2.445,0.896,3.92c0,1.455-0.295,2.748-0.883,3.877c-0.588,1.131-1.418,2.008-2.492,2.633
		c-1.073,0.625-2.301,0.938-3.682,0.938c-1.251,0-2.352-0.26-3.304-0.783s-1.699-1.27-2.24-2.24v8.371h-2.604V47.964h2.604v2.94
		c0.541-0.971,1.283-1.717,2.226-2.241c0.943-0.522,2.03-0.784,3.262-0.784C236.731,47.879,237.963,48.198,239.047,48.832z
		 M237.408,59.92c0.756-0.447,1.344-1.072,1.764-1.877c0.42-0.801,0.631-1.707,0.631-2.715c0-0.99-0.215-1.885-0.645-2.688
		s-1.018-1.43-1.764-1.877c-0.747-0.448-1.596-0.671-2.549-0.671c-0.951,0-1.805,0.224-2.562,0.671
		c-0.756,0.447-1.349,1.074-1.778,1.877s-0.644,1.697-0.644,2.688c0,1.027,0.214,1.938,0.644,2.73s1.022,1.414,1.778,1.861
		c0.757,0.447,1.61,0.672,2.562,0.672C235.799,60.592,236.652,60.367,237.408,59.92z"/>
	<path stroke="#000000" stroke-miterlimit="10" d="M255.146,62.775v-2.072c-1.102,1.457-2.828,2.186-5.18,2.186
		c-1.027,0-1.928-0.197-2.703-0.588c-0.774-0.393-1.371-0.934-1.791-1.625c-0.42-0.689-0.631-1.465-0.631-2.324
		c0-1.324,0.49-2.375,1.471-3.15c0.979-0.773,2.347-1.17,4.102-1.189h4.704v-0.699c0-1.045-0.321-1.854-0.966-2.422
		c-0.645-0.57-1.582-0.855-2.814-0.855c-1.493,0-3.015,0.533-4.563,1.597l-1.093-1.792c1.064-0.69,2.049-1.19,2.955-1.498
		c0.904-0.309,1.982-0.463,3.233-0.463c1.849,0,3.276,0.453,4.284,1.358c1.008,0.905,1.521,2.17,1.54,3.793l0.028,9.744H255.146z
		 M253.592,59.85c0.85-0.588,1.358-1.367,1.526-2.338v-1.484h-4.34c-1.177,0-2.049,0.178-2.618,0.533
		c-0.57,0.354-0.854,0.914-0.854,1.68s0.289,1.371,0.867,1.82c0.578,0.447,1.354,0.672,2.324,0.672
		C251.711,60.732,252.742,60.438,253.592,59.85z"/>
	<path stroke="#000000" stroke-miterlimit="10" d="M267.047,48.734c0.896-0.551,1.959-0.835,3.191-0.854V50.4
		c-1.512-0.056-2.734,0.336-3.668,1.176s-1.466,1.969-1.596,3.389v7.811h-2.604V47.964h2.604v3.192
		C265.459,50.092,266.15,49.285,267.047,48.734z"/>
	<path stroke="#000000" stroke-miterlimit="10" d="M283.426,62.775l-4.732-7.195l-2.884,2.996v4.199h-2.604V42h2.604v13.245
		l7.168-7.28h3.052l-5.516,5.739l6.048,9.072H283.426z"/>
</g>
<g enable-background="new    ">
	<path fill="none" stroke="#000000" stroke-miterlimit="10" d="M127.244,43.176h2.66v19.599h-2.716l-11.2-15.175v15.175H113.3
		V43.176h2.716l11.228,15.203V43.176z"/>
	<path fill="none" stroke="#000000" stroke-miterlimit="10" d="M144.324,62.775v-2.072c-1.102,1.457-2.828,2.186-5.18,2.186
		c-1.027,0-1.928-0.197-2.702-0.588c-0.775-0.393-1.372-0.934-1.792-1.625c-0.42-0.689-0.63-1.465-0.63-2.324
		c0-1.324,0.49-2.375,1.47-3.15c0.98-0.773,2.347-1.17,4.102-1.189h4.704v-0.699c0-1.045-0.322-1.854-0.966-2.422
		c-0.644-0.57-1.582-0.855-2.814-0.855c-1.494,0-3.015,0.533-4.564,1.597l-1.092-1.792c1.064-0.69,2.048-1.19,2.954-1.498
		c0.905-0.309,1.983-0.463,3.234-0.463c1.848,0,3.276,0.453,4.284,1.358c1.008,0.905,1.521,2.17,1.54,3.793l0.028,9.744
		L144.324,62.775L144.324,62.775z M142.77,59.85c0.849-0.588,1.358-1.367,1.526-2.338v-1.484h-4.34
		c-1.176,0-2.049,0.178-2.618,0.533c-0.57,0.354-0.854,0.914-0.854,1.68s0.289,1.371,0.868,1.82
		c0.578,0.447,1.353,0.672,2.324,0.672C140.889,60.732,141.92,60.438,142.77,59.85z"/>
	<path fill="none" stroke="#000000" stroke-miterlimit="10" d="M156.224,48.734c0.896-0.551,1.96-0.835,3.192-0.854v2.52
		c-1.513-0.056-2.735,0.336-3.668,1.176c-0.934,0.84-1.467,1.969-1.597,3.389v7.811h-2.604V47.964h2.604v3.192
		C154.637,50.092,155.328,49.285,156.224,48.734z"/>
	<path fill="none" stroke="#000000" stroke-miterlimit="10" d="M166.92,48.734c0.896-0.551,1.959-0.835,3.191-0.854v2.52
		c-1.512-0.056-2.734,0.336-3.668,1.176s-1.466,1.969-1.596,3.389v7.811h-2.604V47.964h2.604v3.192
		C165.332,50.092,166.023,49.285,166.92,48.734z"/>
	<path fill="none" stroke="#000000" stroke-miterlimit="10" d="M183.033,48.832c1.148,0.635,2.044,1.518,2.688,2.647
		c0.645,1.129,0.967,2.422,0.967,3.877c0,1.457-0.322,2.754-0.967,3.893c-0.644,1.139-1.539,2.025-2.688,2.66
		s-2.459,0.951-3.934,0.951c-1.494,0-2.814-0.316-3.963-0.951c-1.147-0.635-2.043-1.518-2.688-2.646s-0.967-2.432-0.967-3.906
		c0-1.455,0.322-2.748,0.967-3.877c0.645-1.129,1.54-2.012,2.688-2.647c1.148-0.634,2.469-0.952,3.963-0.952
		C180.574,47.879,181.885,48.198,183.033,48.832z M176.51,50.82c-0.757,0.447-1.345,1.068-1.765,1.861s-0.63,1.693-0.63,2.703
		c0,1.025,0.21,1.941,0.63,2.742c0.42,0.805,1.008,1.424,1.765,1.863c0.756,0.438,1.619,0.658,2.59,0.658
		c0.951,0,1.806-0.221,2.562-0.658c0.756-0.439,1.344-1.059,1.765-1.863c0.42-0.801,0.629-1.717,0.629-2.742
		c0-1.01-0.209-1.91-0.629-2.703c-0.421-0.793-1.009-1.414-1.765-1.861c-0.756-0.449-1.61-0.672-2.562-0.672
		C178.129,50.148,177.266,50.372,176.51,50.82z"/>
	<path fill="none" stroke="#000000" stroke-miterlimit="10" d="M187.359,47.964h2.715l4.145,12.235l4.088-12.235h2.717l4.115,12.235
		l4.088-12.235h2.688l-5.46,14.811h-2.717l-4.088-11.648l-4.088,11.648h-2.716L187.359,47.964z"/>
	<path fill="none" stroke="#000000" stroke-miterlimit="10" d="M220.301,50.344c-0.738-0.225-1.442-0.336-2.114-0.336
		c-0.784,0-1.414,0.145-1.89,0.434c-0.477,0.291-0.715,0.732-0.715,1.33s0.267,1.051,0.799,1.357
		c0.531,0.309,1.339,0.621,2.422,0.939c1.025,0.299,1.866,0.598,2.52,0.896c0.653,0.297,1.209,0.736,1.666,1.314
		c0.457,0.58,0.686,1.344,0.686,2.297c0,1.4-0.527,2.463-1.582,3.191s-2.365,1.092-3.934,1.092c-1.102,0-2.17-0.176-3.205-0.531
		c-1.037-0.355-1.91-0.859-2.619-1.512l0.98-1.904c0.616,0.561,1.377,1.008,2.281,1.344c0.906,0.336,1.788,0.504,2.646,0.504
		s1.549-0.158,2.072-0.477c0.522-0.316,0.784-0.801,0.784-1.455c0-0.672-0.276-1.176-0.826-1.512
		c-0.551-0.336-1.386-0.672-2.506-1.008c-0.989-0.281-1.797-0.564-2.423-0.855c-0.625-0.289-1.156-0.713-1.596-1.273
		c-0.438-0.561-0.658-1.287-0.658-2.184c0-1.381,0.504-2.417,1.513-3.108c1.008-0.69,2.269-1.036,3.78-1.036
		c0.896,0,1.777,0.126,2.646,0.378s1.619,0.593,2.254,1.021l-0.952,1.989C221.715,50.867,221.037,50.568,220.301,50.344z"/>
	<path fill="none" stroke="#000000" stroke-miterlimit="10" d="M239.047,48.832c1.082,0.635,1.922,1.521,2.52,2.661
		c0.598,1.139,0.896,2.445,0.896,3.92c0,1.455-0.295,2.748-0.883,3.877c-0.588,1.131-1.418,2.008-2.492,2.633
		c-1.073,0.625-2.301,0.938-3.682,0.938c-1.251,0-2.352-0.26-3.304-0.783s-1.699-1.27-2.24-2.24v8.371h-2.604V47.964h2.604v2.94
		c0.541-0.971,1.283-1.717,2.226-2.241c0.943-0.522,2.03-0.784,3.262-0.784C236.731,47.879,237.963,48.198,239.047,48.832z
		 M237.408,59.92c0.756-0.447,1.344-1.072,1.764-1.877c0.42-0.801,0.631-1.707,0.631-2.715c0-0.99-0.215-1.885-0.645-2.688
		s-1.018-1.43-1.764-1.877c-0.747-0.448-1.596-0.671-2.549-0.671c-0.951,0-1.805,0.224-2.562,0.671
		c-0.756,0.447-1.349,1.074-1.778,1.877s-0.644,1.697-0.644,2.688c0,1.027,0.214,1.938,0.644,2.73s1.022,1.414,1.778,1.861
		c0.757,0.447,1.61,0.672,2.562,0.672C235.799,60.592,236.652,60.367,237.408,59.92z"/>
	<path fill="none" stroke="#000000" stroke-miterlimit="10" d="M255.146,62.775v-2.072c-1.102,1.457-2.828,2.186-5.18,2.186
		c-1.027,0-1.928-0.197-2.703-0.588c-0.774-0.393-1.371-0.934-1.791-1.625c-0.42-0.689-0.631-1.465-0.631-2.324
		c0-1.324,0.49-2.375,1.471-3.15c0.979-0.773,2.347-1.17,4.102-1.189h4.704v-0.699c0-1.045-0.321-1.854-0.966-2.422
		c-0.645-0.57-1.582-0.855-2.814-0.855c-1.493,0-3.015,0.533-4.563,1.597l-1.093-1.792c1.064-0.69,2.049-1.19,2.955-1.498
		c0.904-0.309,1.982-0.463,3.233-0.463c1.849,0,3.276,0.453,4.284,1.358c1.008,0.905,1.521,2.17,1.54,3.793l0.028,9.744
		L255.146,62.775L255.146,62.775z M253.592,59.85c0.85-0.588,1.358-1.367,1.526-2.338v-1.484h-4.34
		c-1.177,0-2.049,0.178-2.618,0.533c-0.57,0.354-0.854,0.914-0.854,1.68s0.289,1.371,0.867,1.82
		c0.578,0.447,1.354,0.672,2.324,0.672C251.711,60.732,252.742,60.438,253.592,59.85z"/>
	<path fill="none" stroke="#000000" stroke-miterlimit="10" d="M267.047,48.734c0.896-0.551,1.959-0.835,3.191-0.854v2.52
		c-1.512-0.056-2.734,0.336-3.668,1.176s-1.466,1.969-1.596,3.389v7.811h-2.604V47.964h2.604v3.192
		C265.459,50.092,266.15,49.285,267.047,48.734z"/>
	<path fill="none" stroke="#000000" stroke-miterlimit="10" d="M283.426,62.775l-4.732-7.195l-2.884,2.996v4.199h-2.604V42h2.604
		v13.245l7.168-7.28h3.052l-5.516,5.739l6.048,9.072L283.426,62.775L283.426,62.775z"/>
</g>
</svg>
