<?xml version="1.0" encoding="utf-8"?>
<!-- Generator: Adobe Illustrator 17.0.0, SVG Export Plug-In . SVG Version: 6.00 Build 0)  -->
<!DOCTYPE svg PUBLIC "-//W3C//DTD SVG 1.1//EN" "http://www.w3.org/Graphics/SVG/1.1/DTD/svg11.dtd">
<svg version="1.1" id="Ebene_1" xmlns="http://www.w3.org/2000/svg" xmlns:xlink="http://www.w3.org/1999/xlink" x="0px" y="0px"
	 width="300px" height="100px" viewBox="0 0 300 100" enable-background="new 0 0 300 100" xml:space="preserve">
<g>
	<g id="BoGJDx.tif_1_">
		<g>
			<path d="M16.329,4.079c3.91,14.888,7.498,28.402,10.929,41.951c0.224,0.886-0.455,2.332-1.217,3.025
				c-4.329,3.932-6.575,8.622-6.213,14.647c-3.363-2.203-3.417-4.714-1.821-7.46c3.501-6.023,3.137-11.625-0.969-17.442
				c-2.871-4.066-4.599-8.833-7.174-13.106c-2.275-3.776-2.179-7.321,0.007-10.968C11.775,11.544,13.717,8.381,16.329,4.079z"/>
			<path d="M86.306,3.814c1.249,1.599,1.881,2.433,2.541,3.249c5.91,7.294,7.801,14.758,1.425,22.791
				c-1.305,1.644-1.833,3.819-3.029,5.56c-4.712,6.862-6.844,13.755-2.008,21.529c0.835,1.342-0.416,3.838-1.433,5.811
				c-0.537-6.047-2.867-10.961-7.527-14.965c-0.678-0.583-0.824-2.2-0.571-3.192C79.09,31.299,82.59,18.027,86.306,3.814z"/>
			<path d="M29.938,75.052c-9.231-6.252-9.837-17.348-2.014-23.76c1.526,3.787,3.062,7.599,4.656,11.555
				c-2.767,0.915-5.268,2.031-2.786,5.925C30.685,70.168,29.938,72.493,29.938,75.052z"/>
			<path d="M70.275,61.977c1.583-3.976,3.071-7.713,4.528-11.372c7.98,5.506,7.36,17.936-2.01,23.45c0-2.185-0.71-4.431,0.137-5.844
				C75.178,64.466,73.419,62.853,70.275,61.977z"/>
			<path d="M7.899,26.535c3.38,8.245,11.153,14.934,9.897,24.797C13.807,43.304,3.905,37.458,7.899,26.535z"/>
			<path d="M94.71,25.16c3.383,7.352,3.891,5.121-9.752,26.585c-0.403-2.829-1.464-4.988-0.786-6.412
				C87.364,38.611,91.032,32.091,94.71,25.16z"/>
			<path d="M6.91,39.592c5.833,6.201,9.701,14.326,8.307,17.447C7.425,49.095,5.128,44.269,6.91,39.592z"/>
			<path d="M87.31,56.059c-0.592-7.066,5.543-11.441,7.948-17.708C98.092,42.987,97.594,44.135,87.31,56.059z"/>
		</g>
	</g>
	<path d="M44.767,45.593c0.121-2.585,0.021-5.179,0.021-8.212c-3.801,1.22-7.306,2.347-10.811,3.472
		c-0.118-0.114-0.236-0.227-0.354-0.341c2.568-2.564,5.135-5.129,8.225-8.215c-3.987,0.324-7.269,0.591-10.552,0.858
		c-0.112-0.176-0.224-0.351-0.337-0.527c2.602-1.801,5.203-3.603,8.321-5.761c-4.09-0.715-7.676-1.342-11.262-1.968
		c-0.01-0.238-0.019-0.475-0.029-0.713c8.676-1.505,17.329-3.139,26.035-4.465c4.716-0.719,9.515-1.006,14.29-1.27
		c0.904-0.05,2.385,0.721,2.721,1.467c1.26,2.797,2.158,5.741,3.377,9.153c-2.147-0.773-3.767-1.356-5.661-2.038
		c0,1.635,0,2.962,0,4.937c-1.456-0.956-2.476-1.625-3.96-2.599c-4.636,5.656-9.321,11.371-14.492,17.679
		c-0.395-4.013-0.726-7.378-1.057-10.742c-0.296-0.108-0.591-0.216-0.886-0.324c-0.386,0.766-1.129,1.545-1.098,2.295
		c0.156,3.745,0.442,7.49,0.87,11.215c0.083,0.718,0.943,1.876,1.547,1.937c4.399,0.444,8.746,0.279,12.893-2.291
		c-0.763-1.742-1.515-3.46-2.375-5.425c6.397,5.578,9.683,18.394,9.86,37.749l0.399,5.729c-11.618,8.663-33.08,14.296-46.543,6.577
		c1.452-1.076,3.562-9.356,4.812-10.53c-1.25,1.174,2.92-6.372,2.92-6.372c0.958-0.96,4.485-8.579,4.485-8.579 M36.517,91.039
		c6.537,1.145,12.898,0.567,19.153-1.329c6.798-2.061,10.184-6.963,9.628-13.994c-6.313,3.619-13.153,4.385-20.297,3.73
		c-0.652-0.06-1.699,0.277-1.996,0.747C40.799,83.703,38.734,87.294,36.517,91.039z M44.884,75.519
		c6.561,1.628,12.952,1.807,19.248-0.525c0.78-0.289,1.754-1.282,1.791-1.99c0.185-3.468,0.084-6.951,0.084-11.173
		c-6.255,4.095-12.451,4.223-18.681,3.994C46.507,69.076,45.756,72.058,44.884,75.519z M47.77,62.245
		c5.37,1.229,10.387,1.461,15.345-0.043c0.907-0.275,2.243-1.499,2.151-2.124c-0.48-3.273-1.356-6.493-1.962-9.151
		c-5.121,1.486-9.87,2.865-15.202,4.412C48.021,57.016,47.903,59.467,47.77,62.245z M60.766,23.081
		c-3.098,0.213-6.196,0.426-9.903,0.68C54.27,26.225,57.115,26.088,60.766,23.081z"/>
</g>
<rect x="110.5" y="42" fill="none" width="243" height="60"/>
<text transform="matrix(1 0 0 1 110.5 62.7759)" stroke="#000000" stroke-miterlimit="10" font-family="'Montserrat-Regular'" font-size="28">Narrowspark</text>
</svg>
